<?xml version="1.0" encoding="utf-8"?>
<!-- Svg Vector Icons : http://www.onlinewebfonts.com/icon -->
<!DOCTYPE svg PUBLIC "-//W3C//DTD SVG 1.1//EN" "http://www.w3.org/Graphics/SVG/1.1/DTD/svg11.dtd">
<svg version="1.1" xmlns="http://www.w3.org/2000/svg" xmlns:xlink="http://www.w3.org/1999/xlink" x="0px" y="0px" viewBox="0 0 1000 1000" enable-background="new 0 0 1000 1000" xml:space="preserve">
<metadata> Svg Vector Icons : http://www.onlinewebfonts.com/icon </metadata>
<g><g transform="translate(0.000000,511.000000) scale(0.100000,-0.100000)"><path d="M4572.3,2702.7C2957.5,2571.1,1444,1743.4,317.7,374.2L100,111l217.7-263.2c1688.2-2052.7,4133.1-2817,6509.7-2037.5c1159.2,382.2,2184.3,1111.1,2923.3,2077.9C9834.2-5.5,9900,95.8,9900,111c0,40.5-260.7,377.1-486,630.2c-898.5,1002.3-2217.1,1703.4-3588.9,1913.4C5564.4,2692.6,4820.3,2722.9,4572.3,2702.7z M5678.3,2272.4c1030.1-134.1,2075.4-589.7,2867.6-1255.4c237.9-200,617.6-579.6,782.1-784.6l96.2-121.5L9285-61.2c-465.7-567-1146.5-1101-1865.4-1460.4c-1159.2-582.1-2576.5-726.4-3796.5-392.3C2929.7-1721.5,2223.5-1362.1,1611-881.2C1352.8-678.7,636.6,47.7,636.6,108.4c0,63.3,604.9,688.4,903.6,933.9c812.4,665.7,1779.3,1098.5,2753.7,1227.5C4673.5,2320.5,5293.6,2323,5678.3,2272.4z"/><path d="M4741.8,1601.7C4043.3,1485.3,3496.6,817.1,3496.6,85.6c2.5-645.4,488.5-1260.4,1138.9-1445.2c63.3-17.7,240.4-32.9,392.3-32.9c308.8,2.5,488.5,48.1,746.7,194.9c179.7,101.2,448,369.5,549.2,549.2c146.8,258.2,192.3,437.9,194.9,746.6c0,311.3-25.3,422.7-154.4,693.5c-124,258.2-402.4,539.1-665.6,668.2C5392.3,1611.8,5078.5,1657.4,4741.8,1601.7z"/></g></g>
</svg>