<svg version="1.1" id="Layer_1" xmlns="http://www.w3.org/2000/svg" xmlns:xlink="http://www.w3.org/1999/xlink" x="0px" y="0px"
	 viewBox="0 0 30 30" style="enable-background:new 0 0 30 30;" xml:space="preserve">
<path d="M7.56,17.19c0-0.88,0.24-1.89,0.72-3.03s1.1-2.25,1.86-3.31c1.56-2.06,2.92-3.62,4.06-4.67l0.75-0.72
	c0.25,0.26,0.53,0.5,0.83,0.72c0.41,0.42,1.04,1.11,1.88,2.09s1.57,1.85,2.17,2.65c0.71,1.01,1.32,2.1,1.81,3.25
	s0.74,2.16,0.74,3.03c0,1-0.19,1.95-0.58,2.86c-0.39,0.91-0.91,1.7-1.57,2.36c-0.66,0.66-1.45,1.19-2.37,1.58
	c-0.92,0.39-1.89,0.59-2.91,0.59c-1,0-1.95-0.19-2.86-0.57c-0.91-0.38-1.7-0.89-2.36-1.55c-0.66-0.65-1.19-1.44-1.58-2.35
	S7.56,18.23,7.56,17.19z 
	"/>
<circle cx="22" cy="8" r="2" stroke="black" stroke-width="1.25" fill="none" />
</svg>
